<svg xmlns="http://www.w3.org/2000/svg" version="1.1" width="48" height="48" >

  <style type="text/css" id="current-color-scheme" >
    .ColorScheme-Text { color:#000000; }
  </style>

  <path
      class="ColorScheme-Text"
      style="fill:none;stroke:currentColor;stroke-width:2;stroke-opacity:1"
      d="M 11,37 8,37 A 4,4 0 0 1 4,33 L 4,22 A 4,4 0 0 1 8,18 L 11,18" /> 
  
  <path
      class="ColorScheme-Text"
      style="fill:none;stroke:currentColor;stroke-width:2;stroke-opacity:1"
      d="M 35,37 39,37 A 4,4 0 0 0 43,33 L 43,22 A 4,4 0 0 0 39,18 L 35,18" /> 
  
  <rect
      class="ColorScheme-Text"
      style="fill:currentColor;fill-opacity:1;stroke:none"
      height="3" width="3" x="34" y="22" />

  <rect
      class="ColorScheme-Text"
      style="fill:currentColor;fill-opacity:1;stroke:none"
      height="3" width="3" x="30" y="22" />

  <rect
      class="ColorScheme-Text"
      style="fill:none;stroke:currentColor;stroke-width:2;stroke-opacity:1"
      height="12" width="24" x="11" y="7" />

  <rect
      class="ColorScheme-Text"
      style="fill:none;stroke:currentColor;stroke-width:2;stroke-opacity:1"
      height="7" width="24" x="11" y="34" />

  <line
      class="ColorScheme-Text"
      style="stroke:currentColor;stroke-width:1;stroke-opacity:1"
      x1="15.5" y1="11.5" x2="31.5" y2="11.5"/>

  <line
      class="ColorScheme-Text"
      style="stroke:currentColor;stroke-width:1;stroke-opacity:1"
      x1="15.5" y1="14.5" x2="31.5" y2="14.5"/>

</svg>
